<mxfile host="app.diagrams.net" modified="2023-11-21T23:46:01.996Z" agent="Mozilla/5.0 (Windows NT 10.0; Win64; x64) AppleWebKit/537.36 (KHTML, like Gecko) Chrome/119.0.0.0 Safari/537.36 Edg/119.0.0.0" etag="itum-hwmMtRqJuV5cci5" version="22.1.3" type="device">
  <diagram name="Página-1" id="hJ3K2YNlHZ1nlqVvNlur">
    <mxGraphModel dx="744" dy="775" grid="1" gridSize="10" guides="1" tooltips="1" connect="1" arrows="1" fold="1" page="1" pageScale="1" pageWidth="827" pageHeight="1169" math="0" shadow="0">
      <root>
        <mxCell id="0" />
        <mxCell id="1" parent="0" />
        <mxCell id="GgUE1jZ_9F-sr_fYQtHI-1" value="" style="rounded=0;whiteSpace=wrap;html=1;" vertex="1" parent="1">
          <mxGeometry x="130" y="60" width="760" height="750" as="geometry" />
        </mxCell>
        <mxCell id="GgUE1jZ_9F-sr_fYQtHI-2" value="Administrador" style="shape=umlActor;verticalLabelPosition=bottom;verticalAlign=top;html=1;outlineConnect=0;" vertex="1" parent="1">
          <mxGeometry x="210" y="560" width="30" height="60" as="geometry" />
        </mxCell>
        <mxCell id="GgUE1jZ_9F-sr_fYQtHI-3" value="Morador" style="shape=umlActor;verticalLabelPosition=bottom;verticalAlign=top;html=1;outlineConnect=0;" vertex="1" parent="1">
          <mxGeometry x="210" y="230" width="30" height="60" as="geometry" />
        </mxCell>
        <mxCell id="GgUE1jZ_9F-sr_fYQtHI-4" value="Sistema" style="shape=umlActor;verticalLabelPosition=bottom;verticalAlign=top;html=1;outlineConnect=0;" vertex="1" parent="1">
          <mxGeometry x="770" y="230" width="30" height="60" as="geometry" />
        </mxCell>
        <mxCell id="GgUE1jZ_9F-sr_fYQtHI-5" value="Notificar acessos" style="ellipse;whiteSpace=wrap;html=1;" vertex="1" parent="1">
          <mxGeometry x="460" y="110" width="120" height="80" as="geometry" />
        </mxCell>
        <mxCell id="GgUE1jZ_9F-sr_fYQtHI-6" value="Abrir tranca por rfid" style="ellipse;whiteSpace=wrap;html=1;" vertex="1" parent="1">
          <mxGeometry x="460" y="210" width="120" height="80" as="geometry" />
        </mxCell>
        <mxCell id="GgUE1jZ_9F-sr_fYQtHI-7" value="Verificar identificação por face" style="ellipse;whiteSpace=wrap;html=1;" vertex="1" parent="1">
          <mxGeometry x="460" y="310" width="120" height="80" as="geometry" />
        </mxCell>
        <mxCell id="GgUE1jZ_9F-sr_fYQtHI-8" value="Efetuar login" style="ellipse;whiteSpace=wrap;html=1;" vertex="1" parent="1">
          <mxGeometry x="460" y="410" width="120" height="80" as="geometry" />
        </mxCell>
        <mxCell id="GgUE1jZ_9F-sr_fYQtHI-9" value="Manter usuário" style="ellipse;whiteSpace=wrap;html=1;" vertex="1" parent="1">
          <mxGeometry x="460" y="505" width="120" height="80" as="geometry" />
        </mxCell>
        <mxCell id="GgUE1jZ_9F-sr_fYQtHI-10" value="Abrir tranca" style="ellipse;whiteSpace=wrap;html=1;" vertex="1" parent="1">
          <mxGeometry x="707" y="380" width="120" height="80" as="geometry" />
        </mxCell>
        <mxCell id="GgUE1jZ_9F-sr_fYQtHI-11" value="" style="endArrow=classic;html=1;rounded=0;exitX=0.5;exitY=0;exitDx=0;exitDy=0;exitPerimeter=0;" edge="1" parent="1" source="GgUE1jZ_9F-sr_fYQtHI-2">
          <mxGeometry width="50" height="50" relative="1" as="geometry">
            <mxPoint x="260" y="480" as="sourcePoint" />
            <mxPoint x="225" y="310" as="targetPoint" />
          </mxGeometry>
        </mxCell>
        <mxCell id="GgUE1jZ_9F-sr_fYQtHI-12" value="" style="endArrow=none;html=1;rounded=0;exitX=1;exitY=0.3333333333333333;exitDx=0;exitDy=0;exitPerimeter=0;entryX=0;entryY=0.5;entryDx=0;entryDy=0;" edge="1" parent="1" source="GgUE1jZ_9F-sr_fYQtHI-3" target="GgUE1jZ_9F-sr_fYQtHI-6">
          <mxGeometry width="50" height="50" relative="1" as="geometry">
            <mxPoint x="430" y="420" as="sourcePoint" />
            <mxPoint x="480" y="370" as="targetPoint" />
          </mxGeometry>
        </mxCell>
        <mxCell id="GgUE1jZ_9F-sr_fYQtHI-13" value="" style="endArrow=none;html=1;rounded=0;exitX=1;exitY=0.3333333333333333;exitDx=0;exitDy=0;exitPerimeter=0;entryX=0;entryY=0.5;entryDx=0;entryDy=0;" edge="1" parent="1" source="GgUE1jZ_9F-sr_fYQtHI-3" target="GgUE1jZ_9F-sr_fYQtHI-7">
          <mxGeometry width="50" height="50" relative="1" as="geometry">
            <mxPoint x="320" y="350" as="sourcePoint" />
            <mxPoint x="370" y="300" as="targetPoint" />
          </mxGeometry>
        </mxCell>
        <mxCell id="GgUE1jZ_9F-sr_fYQtHI-14" value="" style="endArrow=classic;html=1;rounded=0;entryX=1;entryY=0.5;entryDx=0;entryDy=0;exitX=0;exitY=0.3333333333333333;exitDx=0;exitDy=0;exitPerimeter=0;" edge="1" parent="1" source="GgUE1jZ_9F-sr_fYQtHI-4" target="GgUE1jZ_9F-sr_fYQtHI-6">
          <mxGeometry width="50" height="50" relative="1" as="geometry">
            <mxPoint x="590" y="430" as="sourcePoint" />
            <mxPoint x="640" y="380" as="targetPoint" />
          </mxGeometry>
        </mxCell>
        <mxCell id="GgUE1jZ_9F-sr_fYQtHI-15" value="" style="endArrow=classic;html=1;rounded=0;entryX=1;entryY=0.5;entryDx=0;entryDy=0;exitX=0;exitY=0.3333333333333333;exitDx=0;exitDy=0;exitPerimeter=0;" edge="1" parent="1" source="GgUE1jZ_9F-sr_fYQtHI-4" target="GgUE1jZ_9F-sr_fYQtHI-7">
          <mxGeometry width="50" height="50" relative="1" as="geometry">
            <mxPoint x="660" y="330" as="sourcePoint" />
            <mxPoint x="710" y="280" as="targetPoint" />
          </mxGeometry>
        </mxCell>
        <mxCell id="GgUE1jZ_9F-sr_fYQtHI-16" value="" style="endArrow=classic;html=1;rounded=0;entryX=1;entryY=0.5;entryDx=0;entryDy=0;exitX=0;exitY=0.3333333333333333;exitDx=0;exitDy=0;exitPerimeter=0;" edge="1" parent="1" source="GgUE1jZ_9F-sr_fYQtHI-4" target="GgUE1jZ_9F-sr_fYQtHI-5">
          <mxGeometry width="50" height="50" relative="1" as="geometry">
            <mxPoint x="600" y="410" as="sourcePoint" />
            <mxPoint x="650" y="360" as="targetPoint" />
          </mxGeometry>
        </mxCell>
        <mxCell id="GgUE1jZ_9F-sr_fYQtHI-18" value="" style="endArrow=classic;html=1;rounded=0;entryX=1;entryY=1;entryDx=0;entryDy=0;exitX=0;exitY=0.5;exitDx=0;exitDy=0;dashed=1;" edge="1" parent="1" source="GgUE1jZ_9F-sr_fYQtHI-10" target="GgUE1jZ_9F-sr_fYQtHI-7">
          <mxGeometry width="50" height="50" relative="1" as="geometry">
            <mxPoint x="600" y="470" as="sourcePoint" />
            <mxPoint x="650" y="420" as="targetPoint" />
          </mxGeometry>
        </mxCell>
        <mxCell id="GgUE1jZ_9F-sr_fYQtHI-19" value="&amp;lt;&amp;lt;extends&amp;gt;&amp;gt;" style="edgeLabel;html=1;align=center;verticalAlign=middle;resizable=0;points=[];" vertex="1" connectable="0" parent="GgUE1jZ_9F-sr_fYQtHI-18">
          <mxGeometry x="0.1697" y="2" relative="1" as="geometry">
            <mxPoint as="offset" />
          </mxGeometry>
        </mxCell>
        <mxCell id="GgUE1jZ_9F-sr_fYQtHI-20" value="Manter código rfid" style="ellipse;whiteSpace=wrap;html=1;" vertex="1" parent="1">
          <mxGeometry x="460" y="600" width="120" height="80" as="geometry" />
        </mxCell>
        <mxCell id="GgUE1jZ_9F-sr_fYQtHI-21" value="Manter anexo" style="ellipse;whiteSpace=wrap;html=1;" vertex="1" parent="1">
          <mxGeometry x="460" y="700" width="120" height="80" as="geometry" />
        </mxCell>
        <mxCell id="GgUE1jZ_9F-sr_fYQtHI-22" value="" style="endArrow=classic;html=1;rounded=0;entryX=0;entryY=0.5;entryDx=0;entryDy=0;exitX=1;exitY=0.3333333333333333;exitDx=0;exitDy=0;exitPerimeter=0;" edge="1" parent="1" source="GgUE1jZ_9F-sr_fYQtHI-2" target="GgUE1jZ_9F-sr_fYQtHI-8">
          <mxGeometry width="50" height="50" relative="1" as="geometry">
            <mxPoint x="300" y="550" as="sourcePoint" />
            <mxPoint x="350" y="500" as="targetPoint" />
          </mxGeometry>
        </mxCell>
        <mxCell id="GgUE1jZ_9F-sr_fYQtHI-23" value="" style="endArrow=classic;html=1;rounded=0;exitX=1;exitY=0.3333333333333333;exitDx=0;exitDy=0;exitPerimeter=0;entryX=0;entryY=0.5;entryDx=0;entryDy=0;" edge="1" parent="1" source="GgUE1jZ_9F-sr_fYQtHI-2" target="GgUE1jZ_9F-sr_fYQtHI-9">
          <mxGeometry width="50" height="50" relative="1" as="geometry">
            <mxPoint x="340" y="650" as="sourcePoint" />
            <mxPoint x="390" y="600" as="targetPoint" />
          </mxGeometry>
        </mxCell>
        <mxCell id="GgUE1jZ_9F-sr_fYQtHI-24" value="" style="endArrow=classic;html=1;rounded=0;exitX=1;exitY=0.3333333333333333;exitDx=0;exitDy=0;exitPerimeter=0;entryX=0;entryY=0.5;entryDx=0;entryDy=0;" edge="1" parent="1" source="GgUE1jZ_9F-sr_fYQtHI-2" target="GgUE1jZ_9F-sr_fYQtHI-20">
          <mxGeometry width="50" height="50" relative="1" as="geometry">
            <mxPoint x="380" y="660" as="sourcePoint" />
            <mxPoint x="430" y="610" as="targetPoint" />
          </mxGeometry>
        </mxCell>
        <mxCell id="GgUE1jZ_9F-sr_fYQtHI-25" value="" style="endArrow=classic;html=1;rounded=0;exitX=1;exitY=0.3333333333333333;exitDx=0;exitDy=0;exitPerimeter=0;entryX=0;entryY=0.5;entryDx=0;entryDy=0;" edge="1" parent="1" source="GgUE1jZ_9F-sr_fYQtHI-2" target="GgUE1jZ_9F-sr_fYQtHI-21">
          <mxGeometry width="50" height="50" relative="1" as="geometry">
            <mxPoint x="330" y="710" as="sourcePoint" />
            <mxPoint x="380" y="660" as="targetPoint" />
          </mxGeometry>
        </mxCell>
      </root>
    </mxGraphModel>
  </diagram>
</mxfile>
